<?xml version="1.0" standalone="no"?><!-- Generator: Gravit.io --><svg xmlns="http://www.w3.org/2000/svg" xmlns:xlink="http://www.w3.org/1999/xlink" style="isolation:isolate" viewBox="0 0 105 20" width="105" height="20"><defs><clipPath id="_clipPath_Jean92pgVh4itUaNN2q1xJSL63DgK8fm"><rect width="105" height="20"/></clipPath></defs><g clip-path="url(#_clipPath_Jean92pgVh4itUaNN2q1xJSL63DgK8fm)"><g id="codebuild-status-badge-passing"><path d=" M 52.982 0 L 102.11 0 L 102.11 0 C 103.706 0 105 1.343 105 3 L 105 17 L 105 17 C 105 18.657 103.706 20 102.11 20 L 52.982 20 L 52.982 0 Z " fill-rule="evenodd" fill="rgb(55,179,17)"/><clipPath id="_clipPath_sfKLu8C0mEFDCVT7Phic4Eq2UXfQed32"><path d=" M 52.982 0 L 102.11 0 L 102.11 0 C 103.706 0 105 1.343 105 3 L 105 17 L 105 17 C 105 18.657 103.706 20 102.11 20 L 52.982 20 L 52.982 0 Z " fill-rule="evenodd" fill="rgb(55,179,17)"/></clipPath><g clip-path="url(#_clipPath_sfKLu8C0mEFDCVT7Phic4Eq2UXfQed32)"><defs><filter id="dkRLPn799c2VetVcstHMPl3G6BMXui9p" x="-200%" y="-200%" width="400%" height="400%"><feOffset xmlns="http://www.w3.org/2000/svg" in="SourceAlpha" result="offOut" dx="0" dy="1"/><feGaussianBlur xmlns="http://www.w3.org/2000/svg" in="offOut" result="blurOut" stdDeviation="0.5"/><feComponentTransfer xmlns="http://www.w3.org/2000/svg" in="blurOut" result="opacOut"><feFuncA xmlns="http://www.w3.org/2000/svg" type="table" tableValues="0 0.5"/></feComponentTransfer><feBlend xmlns="http://www.w3.org/2000/svg" in="SourceGraphic" in2="opacOut" mode="normal"/></filter></defs><g filter="url(#dkRLPn799c2VetVcstHMPl3G6BMXui9p)"><g transform="matrix(1,0,0,1,58,0)"><text transform="matrix(1,0,0,1,0,14.075)" style="font-family:&quot;DejaVu Sans&quot;, Verdana, Geneva, sans-serif;font-weight:400;font-size:14px;font-style:normal;fill:#ffffff;stroke:none;">95%</text></g></g></g><g id="name=JaCoCo"><g id="name"><linearGradient id="_lgradient_1" x1="0%" y1="50%" x2="6.123233995736766e-15%" y2="150%"><stop offset="0%" stop-opacity="1" style="stop-color:rgb(95,95,95)"/><stop offset="100%" stop-opacity="1" style="stop-color:rgb(75,75,75)"/></linearGradient><path d=" M 1.394 0 L 52.982 0 L 52.982 20 L 1.394 20 L 1.394 20 C 0.624 20 0 18.657 0 17 L 0 3 L 0 3 C 0 1.343 0.624 0 1.394 0 Z " fill-rule="evenodd" fill="url(#_lgradient_1)"/><defs><filter id="4209wQel0UIjmNsWKgHJdRrqDLZBn8sR" x="-200%" y="-200%" width="400%" height="400%"><feOffset xmlns="http://www.w3.org/2000/svg" in="SourceAlpha" result="offOut" dx="0" dy="1"/><feGaussianBlur xmlns="http://www.w3.org/2000/svg" in="offOut" result="blurOut" stdDeviation="0.5"/><feComponentTransfer xmlns="http://www.w3.org/2000/svg" in="blurOut" result="opacOut"><feFuncA xmlns="http://www.w3.org/2000/svg" type="table" tableValues="0 0.5"/></feComponentTransfer><feBlend xmlns="http://www.w3.org/2000/svg" in="SourceGraphic" in2="opacOut" mode="normal"/></filter></defs><g filter="url(#4209wQel0UIjmNsWKgHJdRrqDLZBn8sR)"><g transform="matrix(1,0,0,1,5,0)"><text transform="matrix(1,0,0,1,0.424,14.075)" style="font-family:&quot;Verdana&quot;;font-weight:400;font-size:14px;font-style:normal;fill:#ffffff;stroke:none;">jacoco</text></g></g></g></g></g></g></svg>